<svg xmlns="http://www.w3.org/2000/svg" width="1200" height="1200" fill="none">
   <rect width="1200" height="1200" fill="#EAEAEA" rx="3"/>
   <g opacity=".5">
      <g opacity=".5">
         <path fill="#FAFAFA" d="M600.709 736.5c-75.454 0-136.621-61.167-136.621-136.62 0-75.454 61.167-136.621 136.621-136.621 75.453 0 136.62 61.167 136.62 136.621 0 75.453-61.167 136.62-136.62 136.62Z"/>
         <path stroke="#C9C9C9" stroke-width="2.418" d="M600.709 736.5c-75.454 0-136.621-61.167-136.621-136.62 0-75.454 61.167-136.621 136.621-136.621 75.453 0 136.62 61.167 136.62 136.621 0 75.453-61.167 136.62-136.62 136.62Z"/>
      </g>
      <path stroke="url(#a)" stroke-width="2.418" d="M0-1.209h553.581" transform="scale(1 -1) rotate(45 1163.11 91.165)"/>
      <path stroke="url(#b)" stroke-width="2.418" d="M404.846 598.671h391.726"/>
      <path stroke="url(#c)" stroke-width="2.418" d="M599.5 795.742V404.017"/>
      <path stroke="url(#d)" stroke-width="2.418" d="m795.717 796.597-391.441-391.44"/>
      <path fill="#fff" d="M600.709 656.704c-31.384 0-56.825-25.441-56.825-56.824 0-31.384 25.441-56.825 56.825-56.825 31.383 0 56.824 25.441 56.824 56.825 0 31.383-25.441 56.824-56.824 56.824Z"/>
      <g clip-path="url(#e)">
         
         <svg 
            xmlns="http://www.w3.org/2000/svg"  x="581.364" y="580.535" width="38.689" height="38.689" viewBox="0 0 1024 1024">
            <path d="M0 0 C337.92 0 675.84 0 1024 0 C1024 337.92 1024 675.84 1024 1024 C686.08 1024 348.16 1024 0 1024 C0 686.08 0 348.16 0 0 Z " fill="none" transform="translate(0,0)"/>
            <path d="M0 0 C0.88390411 0.00149048 1.76780823 0.00298096 2.67849731 0.0045166 C15.82678155 0.0443928 28.53308249 0.6185982 41.4375 3.3125 C42.80706773 3.55983695 44.17685748 3.80594798 45.546875 4.05078125 C71.14860506 8.99883445 96.20002265 21.3631791 117.4375 36.3125 C117.98116211 36.69390137 118.52482422 37.07530273 119.08496094 37.46826172 C161.11274543 67.49695276 188.38917261 115.3063243 196.8125 165.75 C203.12929817 207.35201351 195.67449994 251.37464959 175.4375 288.3125 C174.95925781 289.25480469 174.48101563 290.19710938 173.98828125 291.16796875 C150.91586415 335.92449132 108.41526598 369.53584019 60.91723633 384.86303711 C49.94825654 388.23353882 38.75989694 390.49603976 27.4375 392.3125 C26.24382812 392.5084375 25.05015625 392.704375 23.8203125 392.90625 C17.11158992 393.69378842 10.30860966 393.51096182 3.5625 393.5 C2.82318237 393.49906342 2.08386475 393.49812683 1.32214355 393.49716187 C-17.41173203 393.44564498 -34.47389424 391.27737955 -52.5625 386.3125 C-53.31466797 386.1067334 -54.06683594 385.9009668 -54.84179688 385.68896484 C-84.05259087 377.42832027 -110.68179138 361.17410712 -132.5625 340.3125 C-133.49884277 339.42498047 -133.49884277 339.42498047 -134.45410156 338.51953125 C-164.19190587 310.16066963 -183.04315152 274.95356507 -191.6875 234.8125 C-191.92569458 233.71047241 -191.92569458 233.71047241 -192.16870117 232.58618164 C-194.62487776 220.71875296 -195.93024522 209.06102267 -195.875 196.9375 C-195.87008545 195.63893066 -195.8651709 194.34036133 -195.86010742 193.00244141 C-195.243287 141.34768466 -174.96455633 95.42255027 -139.5625 58.3125 C-138.76328125 57.46042969 -137.9640625 56.60835938 -137.140625 55.73046875 C-101.78434915 19.04544397 -50.35834202 -0.20962769 0 0 Z " fill="#C9C9C9" transform="translate(510.5625,302.6875)"/>
            <path d="M0 0 C2.74290681 3.53085514 4.68991045 7.23655264 6.625 11.25 C19.02602892 36.34963676 35.10609677 58.52134153 53 80 C53.42394043 80.51030762 53.84788086 81.02061523 54.28466797 81.54638672 C60.53504978 89.05734974 66.97573829 96.35242844 73.625 103.51171875 C75.00927606 105.01004029 76.38130727 106.518689 77.75 108.03125 C82.30546135 113.0579381 86.92320736 117.98205047 91.75 122.75 C95.38700621 126.3459101 98.80932382 130.01670679 102.125 133.90625 C105.30762283 137.46017883 108.74431716 140.76209793 112.15625 144.09375 C114.3067878 146.23821284 116.30193681 148.47813211 118.28125 150.78125 C122.29672775 155.41853564 126.62797884 159.70133489 131 164 C135.91809882 168.83558038 140.67154399 173.70723004 145.16845703 178.93701172 C148.7545071 182.97621767 152.61033548 186.75357455 156.4375 190.5625 C157.24509766 191.37396484 158.05269531 192.18542969 158.88476562 193.02148438 C162.4864938 196.61740799 166.10077571 200.14302923 169.96484375 203.45703125 C174.9506563 207.74471805 179.51252152 212.44336892 184.125 217.125 C190.62249852 223.82789037 190.62249852 223.82789037 197.6171875 229.9921875 C198.40351563 230.65476562 199.18984375 231.31734375 200 232 C200 232.66 200 233.32 200 234 C200.89467987 234.4062133 200.89467987 234.4062133 201.80743408 234.82063293 C203.9757523 235.98695732 205.36262602 237.12581092 207.08105469 238.86987305 C207.65555359 239.4477507 208.23005249 240.02562836 208.82196045 240.62101746 C209.43243225 241.24494888 210.04290405 241.86888031 210.671875 242.51171875 C211.63374725 243.48139336 211.63374725 243.48139336 212.61505127 244.47065735 C214.66484762 246.53824026 216.70785445 248.61236224 218.75 250.6875 C220.77866262 252.74396246 222.8088256 254.79888319 224.84210205 256.8507843 C226.10502666 258.12576559 227.3652734 259.40340754 228.62225342 260.68424988 C232.3493971 264.45285387 236.20574461 268.00530779 240.2255249 271.46047974 C242.72257135 273.62689707 245.10178376 275.91272136 247.5 278.1875 C288.28335948 315.9770397 342.00859985 327.21832387 396 331 C396 331.66 396 332.32 396 333 C393.88440395 334.4692515 391.77038553 335.80528296 389.5625 337.125 C388.08626357 338.0270505 386.61107295 338.93081386 385.13671875 339.8359375 C384.31864746 340.33706055 383.50057617 340.83818359 382.65771484 341.35449219 C377.69322054 344.42822833 372.78785854 347.59464822 367.875 350.75 C365.70977979 352.13824604 363.5444146 353.52626597 361.37890625 354.9140625 C360.31043457 355.59887695 359.24196289 356.28369141 358.14111328 356.98925781 C350.67206596 361.77046982 343.18567027 366.52448595 335.70166016 371.28222656 C332.05197429 373.60277507 328.40320229 375.92475779 324.75463867 378.24707031 C322.9256692 379.41094524 321.09640717 380.57436057 319.2668457 381.73730469 C314.57771289 384.71859716 309.89399014 387.70789799 305.21875 390.7109375 C268.91625646 413.99898095 268.91625646 413.99898095 249.5 414.375 C248.79875 414.41238281 248.0975 414.44976563 247.375 414.48828125 C234.36191439 414.69447451 222.21950678 407.96673264 211.25 401.6875 C209.99416329 400.98108799 208.73788653 400.27545782 207.48120117 399.57055664 C196.76205463 393.53276773 186.18404422 387.25397068 175.625 380.94140625 C169.05795736 377.02071162 162.44314888 373.18690593 155.8125 369.375 C144.58328252 362.91639258 133.38176764 356.41231972 122.20019531 349.87158203 C119.97862275 348.57233155 117.75668286 347.27373029 115.53417969 345.97607422 C101.63429885 337.85973261 87.76133082 329.70436552 73.97875977 321.38964844 C69.0569762 318.42257371 64.1246394 315.47943203 59.15234375 312.59765625 C50.4313282 307.53773734 41.8287491 302.40680233 33.5625 296.625 C32.89476562 296.16134033 32.22703125 295.69768066 31.5390625 295.2199707 C18.23219977 285.68712745 7.89506059 271.65443855 3 256 C2.74697963 255.21373136 2.49395926 254.42746271 2.2332716 253.61736774 C-0.88601083 242.28661375 -0.39849656 230.87816722 -0.34057617 219.2175293 C-0.33972885 216.82155366 -0.34020709 214.42557724 -0.34190369 212.02960205 C-0.34267222 206.22734773 -0.32973766 200.42524358 -0.31059071 194.62302347 C-0.28904088 187.86471111 -0.28464619 181.10641929 -0.2812262 174.34807739 C-0.27467914 162.29818218 -0.25476566 150.24834829 -0.22631836 138.19848633 C-0.19873239 126.5012238 -0.1775211 114.803978 -0.16479492 103.10668945 C-0.16400675 102.38426493 -0.16321858 101.66184041 -0.16240653 100.91752424 C-0.15849109 97.29291328 -0.15470004 93.6683022 -0.15097082 90.04369104 C-0.11992933 60.02908441 -0.06691661 30.01454942 0 0 Z " fill="#C9C9C9" transform="translate(97,395)"/>
            <path d="M0 0 C0.88115479 0.48774902 1.76230957 0.97549805 2.67016602 1.47802734 C8.19480755 4.55302102 13.6529395 7.71223706 19.05541992 10.99731445 C24.98408915 14.59881374 30.96906873 18.10238118 36.9576416 21.60299683 C59.15749153 34.58285972 81.31827066 47.61995889 103.18310547 61.15844727 C110.13782882 65.45817639 117.13975902 69.66712599 124.1875 73.8125 C125.5485083 74.61518311 125.5485083 74.61518311 126.93701172 75.43408203 C131.67093017 78.22684882 131.67093017 78.22684882 136.41748047 80.99804688 C144.23176882 85.53603738 150.97127394 90.41979584 157.375 96.8125 C158.07238281 97.49828125 158.76976562 98.1840625 159.48828125 98.890625 C169.27370949 109.15107403 174.52794341 121.37256839 178.375 134.8125 C178.55629172 135.3699931 178.73758345 135.92748619 178.92436886 136.50187302 C179.60159633 139.97438065 179.50850984 143.43855843 179.49525452 146.96221924 C179.49653615 148.20466215 179.49653615 148.20466215 179.49784368 149.47220492 C179.49949254 152.25134863 179.4939868 155.03043215 179.48852539 157.80957031 C179.48824336 159.80028278 179.48840155 161.79099536 179.4889679 163.78170776 C179.48925527 169.19039839 179.48336819 174.59906693 179.47639394 180.00775242 C179.47015045 185.65854849 179.46955581 191.30934505 179.46836853 196.96014404 C179.46525816 207.66272105 179.45704871 218.36528785 179.44701904 229.06786036 C179.4358488 241.25151681 179.43034515 253.43517373 179.42532361 265.61883402 C179.41486587 290.683395 179.39727209 315.74794693 179.375 340.8125 C177.49263389 337.98895083 176.46880515 335.40365562 175.37255859 332.2175293 C159.53370713 286.41470234 132.14487975 246.3916834 98.04638672 212.29858398 C96.5032647 210.75326934 94.96835694 209.20009554 93.43359375 207.64648438 C87.07500169 201.25202581 80.47402701 195.39217538 73.375 189.8125 C72.31471724 188.95490524 71.25474036 188.09693189 70.1953125 187.23828125 C54.69092409 175.08194193 38.04216818 164.63937436 20.79736328 155.14697266 C18.56442135 153.91685165 16.34245519 152.66882739 14.12109375 151.41796875 C-15.45867823 134.99778553 -49.15598912 124.20638894 -81.76269531 115.58203125 C-86.63352264 114.27250824 -91.47244654 112.85586004 -96.3125 111.4375 C-97.76462891 111.01355957 -97.76462891 111.01355957 -99.24609375 110.58105469 C-104.88301303 108.9292977 -110.51062177 107.24802946 -116.1328125 105.546875 C-147.16698509 96.15862145 -178.39689741 87.92903075 -210.625 83.8125 C-208.5926704 81.65237292 -206.60589831 80.05409337 -204.0625 78.53515625 C-203.35834961 78.11065186 -202.65419922 77.68614746 -201.92871094 77.2487793 C-201.16848633 76.79543213 -200.40826172 76.34208496 -199.625 75.875 C-197.98365573 74.88400281 -196.34305354 73.89177571 -194.703125 72.8984375 C-193.85943359 72.38764648 -193.01574219 71.87685547 -192.14648438 71.35058594 C-188.19671949 68.94125995 -184.2835438 66.47547983 -180.375 64 C-179.59423096 63.50556396 -178.81346191 63.01112793 -178.0090332 62.50170898 C-175.54662967 60.94030032 -173.08558783 59.37676829 -170.625 57.8125 C-169.75858887 57.26190918 -168.89217773 56.71131836 -167.99951172 56.14404297 C-161.53886665 52.03741265 -155.08158158 47.92551515 -148.625 43.8125 C-108.98192091 18.55879835 -108.98192091 18.55879835 -89.02441406 6.29492188 C-86.83827639 4.94426783 -84.66377005 3.57700509 -82.4921875 2.203125 C-74.20470225 -2.98796051 -65.87642954 -6.99921529 -56.625 -10.1875 C-55.8515625 -10.45433594 -55.078125 -10.72117188 -54.28125 -10.99609375 C-34.95408362 -16.38539976 -16.672069 -9.2740735 0 0 Z " fill="#C9C9C9" transform="translate(744.625,200.1875)"/>
            <path d="M0 0 C9.02223278 1.71164645 17.6261902 4.70657025 26.3125 7.625 C27.51794464 8.02833557 27.51794464 8.02833557 28.7477417 8.43981934 C41.01195847 12.55081536 53.10926664 16.8962149 65 22 C66.47391893 22.61467782 67.94787762 23.22926033 69.421875 23.84375 C98.2142134 36.04662327 124.94481216 53.08970606 149 73 C149.96164062 73.77601563 150.92328125 74.55203125 151.9140625 75.3515625 C159.97891035 81.97361647 167.42191526 89.20773512 174.8125 96.5625 C175.30027924 97.04510284 175.78805847 97.52770569 176.2906189 98.02493286 C182.99039253 104.66859897 189.14795981 111.59630908 195 119 C196.17302068 120.44804338 197.346187 121.8959688 198.51953125 123.34375 C206.83267149 133.77046343 214.16292842 144.55725931 221 156 C221.49741699 156.82338867 221.99483398 157.64677734 222.50732422 158.49511719 C236.43707041 181.66512226 247.80519641 206.27187602 254.3125 232.5625 C254.55524658 233.53050537 254.79799316 234.49851074 255.0480957 235.49584961 C258.58127753 250.57467475 259.39319688 265.87453246 259.42553711 281.31347656 C259.43749537 283.99895945 259.48697946 286.68218037 259.53710938 289.3671875 C259.6779936 304.3424275 257.27793579 318.76447289 249.75 331.9375 C249.3679541 332.63149902 248.9859082 333.32549805 248.59228516 334.04052734 C245.04897683 340.28515539 240.87582835 345.71860368 236 351 C235.41605469 351.65226562 234.83210937 352.30453125 234.23046875 352.9765625 C226.43448783 361.26549772 216.13435314 366.88160162 206.5 372.75 C205.34773288 373.45488575 204.19563541 374.1600489 203.04370117 374.86547852 C200.75595132 376.26576672 198.46693861 377.6639179 196.17724609 379.06103516 C193.39339062 380.75992713 190.6119516 382.46264875 187.83203125 384.16796875 C184.24191763 386.36944638 180.64740709 388.56353957 177.04931641 390.75195312 C175.63903491 391.61082363 174.22991989 392.47161149 172.82177734 393.33398438 C170.71704644 394.62269112 168.60896599 395.9057391 166.5 397.1875 C165.87005127 397.57478271 165.24010254 397.96206543 164.59106445 398.36108398 C160.22822733 401 160.22822733 401 158 401 C157.99503478 399.84927191 157.99503478 399.84927191 157.98996925 398.67529678 C157.90858735 379.96942715 157.81644568 361.26363848 157.71247292 342.5578804 C157.66244835 333.51174849 157.61600464 324.46562518 157.578125 315.41943359 C157.54508235 307.53058679 157.50518423 299.64180881 157.45720994 291.75303817 C157.4320664 287.57981046 157.41024996 283.40662767 157.39665604 279.23334503 C157.38372455 275.29678633 157.36155355 271.36038269 157.33261681 267.42391014 C157.32362688 265.98734157 157.31787116 264.55074809 157.31578636 263.11415291 C157.24910899 224.11000979 133.53132052 192.1892909 112.99731445 160.69067383 C101.04313209 142.33822861 89.16983743 123.88288632 78.046875 105.01171875 C66.7931695 85.92501275 54.13168251 67.83483344 41 50 C40.39655762 49.17725586 39.79311523 48.35451172 39.17138672 47.50683594 C29.05659731 33.74404695 18.38820125 20.77522719 6.9140625 8.1328125 C4.53320932 5.47986181 2.25306347 2.76181974 0 0 Z " fill="#C9C9C9" transform="translate(665,329)"/>
            <path d="M0 0 C0.99 0.495 0.99 0.495 2 1 C1.443125 2.05445312 0.88625 3.10890625 0.3125 4.1953125 C-21.4192453 47.8303695 -30.02784043 99.43869776 -38.61621094 146.97998047 C-44.81395257 181.25703852 -52.58293879 204.00147283 -78 228.9375 C-84.03574543 234.9170631 -89.89555237 240.82410039 -95.09765625 247.55078125 C-96.40686595 249.23635513 -97.7733386 250.87847944 -99.18359375 252.48046875 C-131.84848036 289.65085696 -152.85851147 338.84707037 -157 388 C-167.2283893 383.4639317 -173.09360726 370.83233635 -177.26611233 361.02362823 C-181.3692932 350.10477177 -181.70690965 340.10760666 -181.63110352 328.53320312 C-181.63625302 326.51593906 -181.64354202 324.49867951 -181.65278625 322.48143005 C-181.67117703 317.04536195 -181.65843988 311.60978929 -181.63869596 306.17374229 C-181.62220577 300.45928837 -181.63113669 294.74486329 -181.63621521 289.03039551 C-181.64072463 279.43766447 -181.62493784 269.84512914 -181.59692383 260.25244141 C-181.56487734 249.19433683 -181.56489159 238.13658507 -181.5821386 227.07845545 C-181.59805474 216.39917781 -181.59123745 205.72002833 -181.57420158 195.04075623 C-181.56736576 190.51481167 -181.56832768 185.98897092 -181.57574654 181.46302795 C-181.58346154 176.12430161 -181.57111439 170.78597219 -181.54389763 165.44731331 C-181.53706708 163.49919372 -181.53685782 161.55103668 -181.54411316 159.60291862 C-181.61759012 137.28636952 -176.18319584 116.40166546 -160 100 C-152.61887375 93.30961879 -144.62045345 88.04921077 -136.0625 83 C-134.83968984 82.26941114 -133.61745316 81.53786169 -132.39575195 80.80541992 C-129.8646488 79.2889525 -127.33117195 77.77657389 -124.79589844 76.26708984 C-119.32539852 73.00554091 -113.88593929 69.69300465 -108.4453125 66.38195801 C-105.52982431 64.60816689 -102.61243285 62.83751135 -99.6953125 61.06640625 C-98.57286133 60.38465332 -97.45041016 59.70290039 -96.29394531 59.00048828 C-94.1554339 57.70172142 -92.01677085 56.4032042 -89.87792969 55.10498047 C-78.86353681 48.41881885 -67.87365369 41.69650922 -56.92553711 34.90234375 C-40.68024105 24.83078092 -24.32704512 14.93236481 -7.90234375 5.15625 C-6.98582031 4.6096875 -6.06929687 4.063125 -5.125 3.5 C-4.34382812 3.0359375 -3.56265625 2.571875 -2.7578125 2.09375 C-1.04386411 1.11946672 -1.04386411 1.11946672 0 0 Z " fill="#C9C9C9" transform="translate(437,108)"/>
            <path d="M0 0 C13.63421972 11.13477439 22.67894827 26.67128971 26 44 C26.42259982 49.60288787 26.41130851 55.18374109 26.38818359 60.79980469 C26.39225633 62.47165264 26.39760213 64.1434979 26.40411377 65.81533813 C26.41771398 70.32801465 26.41251793 74.84048388 26.40297651 79.35316372 C26.39533685 84.09736595 26.40243788 88.84155141 26.40713501 93.58575439 C26.41258221 101.55459753 26.40543041 109.52335708 26.39111328 117.4921875 C26.37481122 126.67110056 26.38006169 135.84981341 26.3965925 145.02872157 C26.41026382 152.93995765 26.41209891 160.85113389 26.40427649 168.76237798 C26.39962797 173.47380805 26.39889616 178.18514446 26.40888596 182.8965683 C26.41763515 187.33232731 26.41139064 191.7678318 26.39420319 196.20356369 C26.3902794 197.81950079 26.39130064 199.43545978 26.39799118 201.05138779 C26.48920771 225.34700954 19.91788209 247.88727551 3 266 C-5.97055778 274.90727342 -17.3455648 280.83345061 -28.11669922 287.26416016 C-32.30275203 289.78429864 -36.43752677 292.38140881 -40.5625 295 C-41.32457764 295.48331787 -42.08665527 295.96663574 -42.87182617 296.46459961 C-45.24909252 297.97450854 -47.62463254 299.48710583 -50 301 C-51.76555247 302.12250992 -53.53117989 303.24490196 -55.296875 304.3671875 C-62.68210963 309.06317263 -70.06420577 313.76405937 -77.44140625 318.47265625 C-95.44491757 329.95726391 -113.54731509 341.28109641 -131.73022461 352.47949219 C-135.61961246 354.88073038 -139.48995547 357.30205093 -143.3125 359.80859375 C-144.28872314 360.44788818 -144.28872314 360.44788818 -145.28466797 361.10009766 C-146.98858837 362.22263264 -148.68599645 363.355036 -150.3828125 364.48828125 C-153 366 -153 366 -156 366 C-155.23429688 364.55173828 -155.23429688 364.55173828 -154.453125 363.07421875 C-141.84523122 338.32156626 -134.0022807 311.02001344 -128 284 C-127.74557129 282.86046875 -127.49114258 281.7209375 -127.22900391 280.546875 C-125.41922702 272.37826788 -123.69868164 264.19231914 -122 256 C-121.48973302 253.55726039 -120.97931492 251.11455235 -120.46875 248.671875 C-119.95786509 246.21884747 -119.44744688 243.7657227 -118.9375 241.3125 C-118.68806641 240.11302734 -118.43863281 238.91355469 -118.18164062 237.67773438 C-116.9726164 231.82935734 -115.79599675 225.97768962 -114.6875 220.109375 C-111.33562665 202.41871556 -108.29917477 187.92259605 -95 175 C-92.66015625 173.640625 -92.66015625 173.640625 -91 173 C-91 172.34 -91 171.68 -91 171 C-89.55102539 169.57006836 -89.55102539 169.57006836 -87.53515625 167.90234375 C-82.94546036 163.99761678 -78.68523617 159.8333008 -74.4375 155.5625 C-73.72142578 154.85029297 -73.00535156 154.13808594 -72.26757812 153.40429688 C-67.63877701 148.7670721 -63.24677805 143.98828874 -59 139 C-58.44030518 138.34700928 -57.88061035 137.69401855 -57.30395508 137.02124023 C-49.14668759 127.44521558 -41.57947021 117.72739708 -35 107 C-34.52852539 106.23768066 -34.05705078 105.47536133 -33.57128906 104.68994141 C-13.49980019 71.90563899 -4.74217999 37.73529631 0 0 Z " fill="#C9C9C9" transform="translate(742,519)"/>
            <path d="M0 0 C5.44459304 3.2771945 10.93509096 6.47693545 16.41928101 9.68722534 C18.31929086 10.79951588 20.21890872 11.9124729 22.1184082 13.02563477 C29.38288854 17.28252059 29.38288854 17.28252059 36.65185547 21.53173828 C39.69180802 23.30678145 42.7289824 25.08648974 45.765625 26.8671875 C46.66031494 27.38764648 47.55500488 27.90810547 48.47680664 28.44433594 C52.66077657 30.90314642 56.57610398 33.37171957 60.265625 36.5546875 C47.85960538 44.33593787 35.434252 52.08194559 22.953125 59.7421875 C14.65725666 64.83496119 6.39347666 69.97226327 -1.82543945 75.18823242 C-7.60326416 78.85159802 -13.41280154 82.46130733 -19.234375 86.0546875 C-29.11114358 92.15347203 -38.92945375 98.3412596 -48.734375 104.5546875 C-64.06388022 114.26130007 -79.44497823 123.88396865 -94.83691406 133.49121094 C-107.39225922 141.32888614 -119.93341265 149.18767235 -132.43994141 157.10302734 C-136.36983463 159.58942287 -140.30228385 162.07176999 -144.234375 164.5546875 C-145.01490234 165.04775391 -145.79542969 165.54082031 -146.59960938 166.04882812 C-150.61867642 168.58771028 -154.63864397 171.12514881 -158.66015625 173.66015625 C-159.47105713 174.17167236 -160.28195801 174.68318848 -161.11743164 175.21020508 C-162.71890283 176.22007662 -164.32094086 177.22904988 -165.92358398 178.23706055 C-169.62871496 180.57196573 -173.31656753 182.92671297 -176.96875 185.34375 C-177.9436438 185.98534058 -177.9436438 185.98534058 -178.93823242 186.63989258 C-180.14612567 187.43748608 -181.34970049 188.24167224 -182.5480957 189.0534668 C-183.90541859 189.94790086 -185.31583768 190.76090568 -186.734375 191.5546875 C-187.394375 191.2246875 -188.054375 190.8946875 -188.734375 190.5546875 C-188.56421875 189.78020264 -188.3940625 189.00571777 -188.21875 188.20776367 C-184.61643121 171.72547861 -181.25415082 155.22281645 -178.23574829 138.62316895 C-173.81613565 114.3291536 -168.77037014 90.2457506 -161.734375 66.5546875 C-161.46044922 65.61302734 -161.18652344 64.67136719 -160.90429688 63.70117188 C-145.43285185 10.67053851 -145.43285185 10.67053851 -128.734375 -8.4453125 C-128.16589844 -9.10789062 -127.59742188 -9.77046875 -127.01171875 -10.453125 C-88.59724958 -52.04841009 -38.58513358 -23.34488675 0 0 Z " fill="#C9C9C9" transform="translate(589.734375,106.4453125)"/>
            <path d="M0 0 C0.99 0.495 0.99 0.495 2 1 C1.69707031 2.27488281 1.39414062 3.54976562 1.08203125 4.86328125 C-1.3533745 15.26410441 -3.54943368 25.67297655 -5.4375 36.1875 C-7.52599228 47.7888503 -9.98705646 59.27645845 -12.6015625 70.76953125 C-13.63176977 75.30643204 -14.58493501 79.85086503 -15.48510742 84.41503906 C-21.99532071 117.11717897 -32.61151752 156.40689159 -55 182 C-55.83144531 182.95712891 -55.83144531 182.95712891 -56.6796875 183.93359375 C-63.84353402 191.62873032 -73.08782697 196.73125286 -83 200 C-83.85464844 200.2990625 -84.70929688 200.598125 -85.58984375 200.90625 C-106.25247859 207.16589814 -127.25336012 202.02853784 -145.78613281 192.23193359 C-151.34681747 189.1376223 -156.66545009 185.65358468 -162.00390625 182.1953125 C-167.13033996 178.88565046 -172.36111372 175.772527 -177.625 172.6875 C-185.85943322 167.85522077 -194.06612085 162.97999036 -202.25 158.0625 C-203.27303223 157.44785889 -204.29606445 156.83321777 -205.35009766 156.19995117 C-207.29538733 155.03083176 -209.24054298 153.86148932 -211.18554688 152.69189453 C-215.45534837 150.12512455 -219.7275736 147.56239773 -224 145 C-220.79506381 142.37644923 -217.55307288 139.96721232 -214.078125 137.71484375 C-213.14395752 137.10753418 -212.20979004 136.50022461 -211.24731445 135.87451172 C-210.25820068 135.23529785 -209.26908691 134.59608398 -208.25 133.9375 C-207.22156982 133.26992676 -206.19313965 132.60235352 -205.13354492 131.91455078 C-202.09076908 129.9403336 -199.04571971 127.96967161 -196 126 C-194.46999824 125.00919773 -192.94004445 124.01832137 -191.41015625 123.02734375 C-189.36731771 121.70460459 -187.32408881 120.38248554 -185.27978516 119.06201172 C-181.57321154 116.66779655 -177.87155446 114.26632894 -174.17578125 111.85546875 C-165.32416346 106.08278694 -156.44510695 100.36125076 -147.50097656 94.73291016 C-132.1717794 85.080611 -116.93896773 75.27506455 -101.73828125 65.421875 C-83.72307856 53.74476067 -65.61984266 42.20129994 -47.5 30.6875 C-39.00745984 25.28955161 -30.54580701 19.84610388 -22.10595703 14.36621094 C-19.8311269 12.89044588 -17.55445158 11.41756047 -15.27734375 9.9453125 C-14.49915283 9.44217529 -13.72096191 8.93903809 -12.91918945 8.4206543 C-11.42688386 7.45590422 -9.93453587 6.4912197 -8.44213867 5.52661133 C-7.77287354 5.09372803 -7.1036084 4.66084473 -6.4140625 4.21484375 C-5.8257666 3.83448975 -5.2374707 3.45413574 -4.63134766 3.06225586 C-3.0804326 2.05237388 -1.5398999 1.02659993 0 0 Z " fill="#C9C9C9" transform="translate(620,714)"/>
            <path d="M0 0 C0.00496522 1.84924733 0.00496522 1.84924733 0.01003075 3.7358532 C0.08910445 33.02236673 0.17834556 62.30883107 0.28005161 91.59527384 C0.29256999 95.20251304 0.30500284 98.80975252 0.31738281 102.41699219 C0.31984881 103.13510724 0.3223148 103.8532223 0.32485552 104.59309842 C0.36454364 116.20991147 0.39730842 127.8267342 0.42749982 139.44357537 C0.45864996 151.36980355 0.49727452 163.29599076 0.54279006 175.22217286 C0.56813214 181.91827427 0.5898136 188.61434505 0.60334396 195.31048203 C0.61619356 201.61576442 0.63827946 207.92094764 0.66738319 214.22617531 C0.67643627 216.53759627 0.68214389 218.8490332 0.68421364 221.16047096 C0.68755219 224.32314679 0.70307286 227.48554415 0.7215271 230.64816284 C0.718625 232.01104803 0.718625 232.01104803 0.71566427 233.40146625 C0.76835015 239.46653311 1.61559655 245.0975088 3 251 C-4.07988378 245.36827426 -9.95578041 238.69491792 -16 232 C-16.83402344 231.08089844 -17.66804688 230.16179687 -18.52734375 229.21484375 C-39.43520344 206.09110833 -60.35666234 182.0881652 -76 155 C-76.39815918 154.31437988 -76.79631836 153.62875977 -77.20654297 152.92236328 C-89.16118296 132.24051924 -103.12057428 106.68832803 -97.1640625 82.0078125 C-89.74638037 58.06214065 -73.34193192 45.10490046 -53.00439453 32.265625 C-50.8741533 30.92053723 -48.74751834 29.56986246 -46.62109375 28.21875 C-37.22126797 22.25580373 -27.77989424 16.36311793 -18.29272461 10.54003906 C-13.37726027 7.51291177 -8.56052385 4.38821278 -3.81689453 1.09716797 C-2 0 -2 0 0 0 Z " fill="#C9C9C9" transform="translate(198,263)"/>
            <path d="M0 0 C5.05742785 1.44386443 9.10148139 3.64671206 13.5 6.4375 C14.19706055 6.87779541 14.89412109 7.31809082 15.61230469 7.77172852 C30.12969027 17.10597949 44.13211054 28.53679366 55 42 C55.40041504 42.48807129 55.80083008 42.97614258 56.21337891 43.47900391 C75.32494502 66.832933 88.4170461 92.93452226 93 123 C93.21269531 124.24394531 93.42539062 125.48789062 93.64453125 126.76953125 C95.28718453 139.73714375 89.76585646 148.70883726 82.25 158.6875 C74.32945786 168.70589915 65.5072422 177.02794986 54.71240234 183.90722656 C53.57369372 184.63389605 52.44109297 185.37022935 51.31494141 186.11621094 C37.98794395 194.93459146 21.76905687 202.9014288 6 206 C5.01 205.67 4.02 205.34 3 205 C3.36351562 204.44054687 3.72703125 203.88109375 4.1015625 203.3046875 C18.4260407 180.45898124 22.61855772 155.41560718 17 129 C15.41745838 120.98000094 16.71297322 114.0643589 18.23046875 106.16015625 C19.2533486 100.78366681 19.77832235 95.46804865 20 90 C20.05285156 88.70320313 20.10570312 87.40640625 20.16015625 86.0703125 C20.97423275 55.62038737 12.02574557 27.62570655 0 0 Z " fill="#010101" transform="translate(587,347)"/>
            <path d="M0 0 C1.56526589 0.1574734 3.13128726 0.30763066 4.69799805 0.45001221 C13.46402479 1.26758795 20.61022875 2.0459505 27.05871582 8.61355591 C27.8502002 9.28257935 28.64168457 9.95160278 29.45715332 10.64089966 C50.48418062 30.96148533 60.76316405 62.23839729 61.30871582 90.95339966 C61.34768365 93.96516775 61.36387236 96.97655857 61.37121582 99.98855591 C61.37489166 100.73032074 61.3785675 101.47208557 61.38235474 102.23632812 C61.38787711 104.37017812 61.3771097 106.50322051 61.35949707 108.63699341 C61.35087646 109.88400024 61.34225586 111.13100708 61.33337402 112.415802 C61.07636749 115.40804335 60.6347549 117.10146177 59.05871582 119.61355591 C58.66941895 118.9471106 58.28012207 118.28066528 57.87902832 117.59402466 C47.33955754 100.23061082 33.02077846 89.39456426 15.05871582 80.61355591 C13.81734863 79.9967395 13.81734863 79.9967395 12.55090332 79.36746216 C8.59093813 77.59444639 4.72731248 76.51412308 0.46887207 75.73464966 C-0.78554688 75.50020142 -0.78554688 75.50020142 -2.06530762 75.26101685 C-3.7318249 74.96199603 -5.40329522 74.68900031 -7.07897949 74.44656372 C-12.69322151 73.46505288 -15.45805231 71.68217014 -19.24963379 67.4614563 C-21.97680925 64.48238412 -25.14811487 62.14444243 -28.37878418 59.73855591 C-29.06835205 59.2246228 -29.75791992 58.7106897 -30.46838379 58.18118286 C-56.07619115 39.48576991 -86.24095852 28.49903987 -117.94128418 27.61355591 C-90.47733516 -1.62635286 -36.81800716 -3.73422576 0 0 Z " fill="#020201" transform="translate(534.9412841796875,331.3864440917969)"/>
            <path d="M0 0 C2.36489144 3.05705479 4.43031272 6.23761158 6.5 9.5 C19.15008474 28.44056404 36.54576255 41.67603259 58.375 48.3125 C64.96171575 50.52796385 68.23116606 53.86989991 72.5859375 59.16796875 C76.51965515 63.78276696 81.22601696 67.29693748 86 71 C86.97453125 71.80179688 87.9490625 72.60359375 88.953125 73.4296875 C112.02807501 92.04038839 139.57864147 102.83618988 169 105 C166.77277961 107.48058495 164.72643103 108.76713847 161.67578125 110.0859375 C160.81968262 110.45702637 159.96358398 110.82811523 159.08154297 111.21044922 C158.16775879 111.59475098 157.25397461 111.97905273 156.3125 112.375 C155.37293457 112.77348145 154.43336914 113.17196289 153.46533203 113.58251953 C145.43875529 116.92863023 137.35652693 119.62449291 129 122 C128.10023438 122.29519531 127.20046875 122.59039063 126.2734375 122.89453125 C104.62974787 129.69587644 78.08607439 128.79433056 56 125 C54.3242806 124.76388356 52.64849523 124.528235 50.97265625 124.29296875 C40.08165361 122.61688719 32.75878681 120.29946881 25 112 C24.30132812 111.33226562 23.60265625 110.66453125 22.8828125 109.9765625 C2.13466141 88.90548299 -3.43924638 55.8229677 -3.29272461 27.56054688 C-2.95239546 5.90479092 -2.95239546 5.90479092 0 0 Z " fill="#010101" transform="translate(426,542)"/>
            <path d="M0 0 C-0.4125 1.155 -0.825 2.31 -1.25 3.5 C-3.60935086 10.54434758 -5.24977863 17.78624976 -7 25 C-7.17942139 25.61939453 -7.35884277 26.23878906 -7.54370117 26.87695312 C-8.54626652 31.54164453 -8.18476192 36.43692921 -8.1875 41.1875 C-8.19974609 42.28642578 -8.21199219 43.38535156 -8.22460938 44.51757812 C-8.23497277 50.31071863 -7.7962309 55.41236073 -6.38208008 61.01879883 C-5.08352006 67.75222663 -8.3915636 75.49062721 -10.18359375 81.97265625 C-10.51037109 83.17728516 -10.51037109 83.17728516 -10.84375 84.40625 C-11.04162109 85.12103516 -11.23949219 85.83582031 -11.44335938 86.57226562 C-12.82043887 92.57826496 -13.16887351 98.4530023 -13.203125 104.58203125 C-13.20882507 105.39508224 -13.21452515 106.20813324 -13.22039795 107.04582214 C-13.22980441 108.76450317 -13.23636451 110.48320188 -13.24023438 112.2019043 C-13.2498302 114.76710842 -13.28084844 117.3314715 -13.3125 119.89648438 C-13.40938999 134.83897387 -11.54571075 149.15872964 -7.25 163.5 C-6.99976074 164.35875732 -6.74952148 165.21751465 -6.49169922 166.10229492 C-3.84660946 174.93520808 -0.51524967 183.48227965 3 192 C-1.86591871 190.41857642 -5.48807659 187.63157562 -9.5 184.5625 C-10.55513794 183.76114624 -10.55513794 183.76114624 -11.6315918 182.94360352 C-41.83933505 159.81947881 -63.72392328 132.18212085 -76 96 C-76.41507812 94.80375 -76.83015625 93.6075 -77.2578125 92.375 C-81.56481033 78.88174806 -81.24870804 67.77770114 -75 55 C-71.20706134 47.65986236 -66.3799849 41.25012052 -61 35 C-60.48050781 34.39542969 -59.96101563 33.79085937 -59.42578125 33.16796875 C-47.20546356 20.02420136 -18.45431749 0 0 0 Z " fill="#020201" transform="translate(426,456)"/>
            <path d="M0 0 C0.33 0 0.66 0 1 0 C-0.52692149 33.69757773 -12.24441731 66.33484168 -33 93 C-33.55937256 93.72711182 -34.11874512 94.45422363 -34.69506836 95.20336914 C-39.62145855 101.50499461 -44.91361001 107.27959343 -50.5625 112.9375 C-51.37396484 113.77345703 -52.18542969 114.60941406 -53.02148438 115.47070312 C-63.32454121 125.8236537 -73.16025219 126.3484799 -87.27416992 126.3828125 C-116.46643693 125.96469126 -144.30336201 111.97308258 -166 93 C-167.75457372 91.05500291 -169.37400488 89.05701759 -171 87 C-169.75347656 86.91363281 -168.50695312 86.82726562 -167.22265625 86.73828125 C-144.7013429 84.96871769 -125.54135838 78.6902088 -108 64 C-107.41089844 63.28714844 -106.82179688 62.57429687 -106.21484375 61.83984375 C-102.88133902 59.07074194 -99.39248198 58.8909959 -95.1875 58.25 C-61.78256056 52.31018324 -25.64744659 35.05090938 -4.9296875 7.21875 C-3.70291781 5.45061231 -2.49484408 3.66924203 -1.3125 1.87109375 C-0.879375 1.25363281 -0.44625 0.63617188 0 0 Z " fill="#010101" transform="translate(681,508)"/>
            <path d="M0 0 C1.11246094 0.61101562 2.22492188 1.22203125 3.37109375 1.8515625 C9.24079807 5.17846108 14.73791444 8.77485483 20 13 C16.45515529 15.05227852 12.92572809 15.7226595 8.9375 16.5625 C-5.94007889 20.04327247 -19.37815036 27.1466927 -31 37 C-31.76828125 37.64195312 -32.5365625 38.28390625 -33.328125 38.9453125 C-36.12738028 41.34023091 -38.70806031 43.64534323 -41.0546875 46.49609375 C-45.20056472 50.02063923 -49.49432799 50.93530052 -54.6875 52.3125 C-86.18819777 61.3084463 -116.07434476 78.85253424 -136.35546875 104.98046875 C-137.16951172 105.98013672 -137.16951172 105.98013672 -138 107 C-138.33 107 -138.66 107 -139 107 C-139.97847289 87.79293961 -135.94197107 69.15292599 -130 51 C-129.76941895 50.28118652 -129.53883789 49.56237305 -129.30126953 48.82177734 C-123.70213237 31.66654156 -114.5111374 16.66206004 -103.28222656 2.62402344 C-102.22139316 1.28040885 -101.20926668 -0.10150187 -100.2109375 -1.4921875 C-93.40825925 -10.45776858 -81.10634784 -15.56799808 -70.3046875 -17.6015625 C-45.76626871 -20.56009526 -21.22969444 -11.75708112 0 0 Z " fill="#010101" transform="translate(482,390)"/>
             <path d="M0 0 C3.3950652 2.73491364 6.28344512 5.87939023 8.25 9.8125 C8.35921732 12.83190078 8.40734129 15.828586 8.41113281 18.84863281 C8.41858017 20.25375877 8.41858017 20.25375877 8.42617798 21.68727112 C8.44082283 24.7967298 8.4476061 27.90613744 8.453125 31.015625 C8.45887533 33.17315676 8.46463308 35.3306885 8.47039795 37.48822021 C8.48091509 42.01770262 8.48675283 46.54716725 8.49023438 51.07666016 C8.49571511 56.87842555 8.51973127 62.67995579 8.54820633 68.48164749 C8.5668398 72.94092492 8.57203873 77.40014585 8.57357025 81.85945892 C8.57659661 83.99806756 8.58462454 86.1366752 8.59775543 88.27524567 C8.61482755 91.26994128 8.61293248 94.2640644 8.60644531 97.25878906 C8.62026749 98.5822509 8.62026749 98.5822509 8.6343689 99.93244934 C8.59545068 105.67344973 7.79666576 110.08439241 3.71484375 114.45703125 C-2.48813524 119.20048577 -6.9729319 119.67883153 -14.75 118.8125 C-19.44510385 116.95938822 -22.77413783 113.3999525 -25.10546875 108.92578125 C-26.40742277 104.6569502 -26.03696903 100.2206631 -25.75 95.8125 C-26.74 95.791875 -27.73 95.77125 -28.75 95.75 C-33.93109027 95.02338368 -37.34277535 91.57526113 -40.75 87.8125 C-44.50151429 82.77032712 -44.189174 78.08505829 -44.34375 71.9921875 C-44.78965846 68.50209629 -45.23232412 68.0154664 -47.75 65.8125 C-48.96558305 62.18647101 -49.47772624 58.50236429 -47.9375 54.92578125 C-45.74010656 51.94050662 -43.83709907 50.83783791 -40.3125 49.8125 C-36.75 49.8125 -36.75 49.8125 -33.87109375 51.01953125 C-30.74852401 52.155744 -30.74852401 52.155744 -27.96875 50.57421875 C-19.55593735 44.15582289 -14.52072161 37.6582731 -10.75 27.8125 C-9.43 28.1425 -8.11 28.4725 -6.75 28.8125 C-5.74505958 33.28905278 -5.40632681 36.65426531 -7.48046875 40.859375 C-12.45142522 48.50700034 -19.52477436 55.69988718 -27.75 59.8125 C-28.79108478 61.80280913 -29.66418567 63.84071976 -30.5546875 65.90234375 C-31.9868613 68.19101364 -33.27777525 68.8246445 -35.75 69.8125 C-36.25178488 74.72999181 -36.38485744 78.56828004 -33.5 82.75 C-30.5683387 86.29755653 -28.47530519 87.58746019 -23.875 88.1875 C-19.36412484 87.64619498 -16.3211382 85.80066871 -13.484375 82.2109375 C-12.52050281 80.77870487 -11.62825304 79.29877437 -10.75 77.8125 C-9.43 78.1425 -8.11 78.4725 -6.75 78.8125 C-6.86861452 85.45491298 -8.58010252 88.48192236 -13.05859375 93.34375 C-14.75 94.8125 -14.75 94.8125 -16.75 94.8125 C-16.80447047 96.22873216 -16.84300508 97.64558191 -16.875 99.0625 C-16.89820313 99.85140625 -16.92140625 100.6403125 -16.9453125 101.453125 C-16.72711178 104.08898974 -16.17967069 105.59698383 -14.75 107.8125 C-11.23175489 110.15799674 -9.89224306 110.39241403 -5.75 109.8125 C-3.06658952 107.82914518 -1.08902198 106.22767006 -0.28672409 102.8786602 C-0.09840849 100.49659864 -0.07441969 98.1606626 -0.10302734 95.77124023 C-0.09426575 94.86985321 -0.08550415 93.96846619 -0.07647705 93.0397644 C-0.0545069 90.06638161 -0.06902618 87.09449111 -0.0859375 84.12109375 C-0.08256898 82.05273656 -0.07771606 79.9843813 -0.07144165 77.91603088 C-0.06407379 73.58420947 -0.07477442 69.25290398 -0.09814453 64.92114258 C-0.12664977 59.36669384 -0.11021625 53.81345209 -0.08028221 48.25904751 C-0.0622223 43.98935332 -0.06796102 39.71994577 -0.08092117 35.450243 C-0.08425786 33.40209879 -0.0801589 31.35392861 -0.06852341 29.30581474 C-0.05583443 26.44462922 -0.07516351 23.58540452 -0.10302734 20.72436523 C-0.09290619 19.87698288 -0.08278503 19.02960052 -0.07235718 18.15653992 C-0.14712949 14.01575616 -0.18905445 12.41758319 -3.09512329 9.28285217 C-6.3025208 7.50649703 -8.13662742 7.26263895 -11.75 7.8125 C-15.01020247 10.19372632 -15.37973426 12.77768662 -16.125 16.625 C-17.39781672 22.07898669 -18.54210231 25.09389274 -22.75 28.8125 C-24.296875 29.2765625 -24.296875 29.2765625 -25.875 29.75 C-29.12354019 30.57517584 -29.12354019 30.57517584 -30.4375 34.25 C-30.870625 35.425625 -31.30375 36.60125 -31.75 37.8125 C-32.9375 39.75 -32.9375 39.75 -34.75 40.8125 C-39.47281301 41.34572082 -41.62802509 41.50478239 -45.6875 39 C-48.35534627 36.17046607 -48.6981301 34.2793291 -49.125 30.4375 C-48.75 26.8125 -48.75 26.8125 -46.6875 23.9375 C-43.16294758 21.38782378 -41.07594296 20.96167045 -36.75 20.8125 C-35.533125 21.039375 -34.31625 21.26625 -33.0625 21.5 C-29.75018904 22.18971104 -29.75018904 22.18971104 -27.6328125 20.203125 C-25.41745414 17.39026334 -24.95276792 15.37660319 -24.3125 11.875 C-22.81979636 5.27821293 -20.54698198 2.71953317 -15 -1.0625 C-9.7307239 -2.88648019 -5.07617793 -2.19198592 0 0 Z " fill="#060606" transform="translate(500.75,440.1875)"/>

            <path d="M0 0 C4.54363049 2.64479983 7.54941278 5.28942798 9.90625 10.09375 C10.46131736 12.66797542 10.89754415 15.21040616 11.21875 17.82421875 C12.10518242 20.75045306 13.28145263 21.60652897 15.90625 23.09375 C18.30013923 22.81572162 18.30013923 22.81572162 20.90625 22.09375 C25.14614626 21.71518783 27.17448982 21.6165151 30.78125 23.96875 C33.70663857 26.89413857 33.87128325 27.66715563 34.21875 31.90625 C34.18857024 35.22602327 33.9123488 36.08419521 32.03125 39.03125 C29.31118999 41.67130824 28.40410154 42.03738945 24.59375 42.46875 C20.90625 42.09375 20.90625 42.09375 17.96875 39.90625 C15.75961862 36.89379811 15.38806002 35.72107988 15.90625 32.09375 C15.060625 32.09375 14.215 32.09375 13.34375 32.09375 C8.31665885 30.63132348 5.95951404 27.2068247 2.90625 23.09375 C1.48367765 20.24860529 1.57987538 17.43297641 1.3828125 14.28515625 C0.80540641 11.63003479 0.07489233 10.70127509 -2.09375 9.09375 C-5.55144191 8.51032647 -5.55144191 8.51032647 -9.09375 9.09375 C-11.45872439 10.96083505 -12.75405715 12.41436431 -14.09375 15.09375 C-14.21317363 17.93506379 -14.2721352 20.7526029 -14.28662109 23.5949707 C-14.29479858 24.47480621 -14.30297607 25.35464172 -14.31140137 26.26113892 C-14.33626862 29.18059605 -14.35277434 32.10000455 -14.3671875 35.01953125 C-14.37251118 36.01541952 -14.37783485 37.01130779 -14.38331985 38.0373745 C-14.41005658 43.30803025 -14.42943025 48.57866227 -14.44384766 53.84936523 C-14.46050139 59.29716693 -14.50528391 64.74436436 -14.5562191 70.19193745 C-14.58985139 74.37752489 -14.60142066 78.56296816 -14.60707474 82.74867821 C-14.61379779 84.75696623 -14.62904709 86.76524442 -14.65296555 88.77340126 C-14.68453525 91.58421918 -14.6846663 94.39339752 -14.67724609 97.2043457 C-14.69365143 98.03414444 -14.71005676 98.86394318 -14.72695923 99.71888733 C-14.68097215 103.97386102 -14.4541663 105.62326552 -11.77993774 109.11418152 C-9.15917916 111.36362091 -9.15917916 111.36362091 -5.53125 111.65625 C-2.13907739 111.30365683 -2.13907739 111.30365683 0.34375 109.71875 C2.77304517 105.63753411 2.79278511 101.71425078 1.90625 97.09375 C-0.28177581 94.15520926 -0.28177581 94.15520926 -3.09375 92.09375 C-6.63670881 88.42425694 -6.68323024 85.0199871 -7.09375 80.09375 C-4.84375 80.21875 -4.84375 80.21875 -2.09375 81.09375 C0.03125 84.03125 0.03125 84.03125 1.90625 87.09375 C5.63204089 89.57761059 7.49336402 89.4741712 11.90625 89.09375 C16.0637296 87.29847472 18.2064555 85.29850482 19.90625 81.09375 C20.52937982 76.99889692 20.99186288 72.92645132 18.81640625 69.25390625 C17.56088678 67.82370581 16.23563759 66.45556168 14.90625 65.09375 C14.720625 64.10568359 14.720625 64.10568359 14.53125 63.09765625 C14.07300506 60.90509675 14.07300506 60.90509675 11.90234375 59.70703125 C11.05800781 59.27777344 10.21367188 58.84851563 9.34375 58.40625 C1.63265098 54.03147176 -4.58198573 47.72793968 -7.09375 39.09375 C-7.30058703 36.37119749 -7.23784354 33.83152725 -7.09375 31.09375 C-5.77375 31.09375 -4.45375 31.09375 -3.09375 31.09375 C-2.71863281 31.82980469 -2.34351563 32.56585938 -1.95703125 33.32421875 C0.82133421 38.62200882 3.24926988 43.21293323 7.90625 47.09375 C8.47988281 47.65320313 9.05351563 48.21265625 9.64453125 48.7890625 C11.68764604 50.61517311 13.40485743 51.96268553 15.90625 53.09375 C18.61708561 52.90939642 20.960087 52.3013946 23.5703125 51.5625 C25.90625 51.09375 25.90625 51.09375 29.40625 52.28125 C31.90625 54.09375 31.90625 54.09375 33.90625 57.09375 C34.4409932 62.61942976 34.4409932 62.61942976 33.90625 65.09375 C33.25011719 65.87105469 32.59398437 66.64835937 31.91796875 67.44921875 C29.45314764 70.68938165 29.41482011 72.50868192 29.34375 76.53125 C28.9452694 83.91144276 27.5012581 87.76801204 22.15625 92.90625 C18.37962889 96.08140923 15.79925874 96.99181232 10.90625 97.09375 C11.23625 97.75375 11.56625 98.41375 11.90625 99.09375 C12.50406947 105.07194465 11.25495936 109.22382815 7.90625 114.09375 C3.62207014 118.52000726 0.27671967 120.26161204 -5.84375 120.40625 C-11.12122318 120.33680956 -14.22370378 119.96379622 -18.09375 116.09375 C-21.96417892 110.29558313 -22.67445748 105.13161188 -22.61132812 98.28466797 C-22.6183374 97.3372876 -22.62534668 96.38990723 -22.63256836 95.41381836 C-22.65007321 92.30422043 -22.63855399 89.19554354 -22.625 86.0859375 C-22.62769662 83.91455919 -22.63158045 81.74318205 -22.63659668 79.57180786 C-22.64248118 75.03099012 -22.63396068 70.49048798 -22.61523438 65.94970703 C-22.5924185 60.13451022 -22.60559166 54.32005084 -22.62952423 48.50488091 C-22.64398715 44.02497818 -22.63937435 39.54524997 -22.62901306 35.06534195 C-22.62634857 32.9211633 -22.62960574 30.77696871 -22.63893127 28.63280869 C-22.64910775 25.63612696 -22.633581 22.64063614 -22.61132812 19.64404297 C-22.61942505 18.76181061 -22.62752197 17.87957825 -22.63586426 16.97061157 C-22.56118867 11.53329564 -21.73567392 8.39113581 -18.09375 4.09375 C-12.57824729 -0.07101735 -6.86761895 -2.97255149 0 0 Z " fill="#050505" transform="translate(538.09375,438.90625)"/>
            <path d="M0 0 C1.32 0.33 2.64 0.66 4 1 C4.68359375 2.7265625 4.68359375 2.7265625 5 5 C1.74523454 11.0682068 -3.83863646 16.85486882 -10 20 C-13 19.875 -13 19.875 -15 19 C-14.43908002 15.62728887 -13.59423873 14.34278363 -10.875 12.3125 C-6.49124652 8.78189937 -3.30635526 4.52237042 0 0 Z " fill="#0B0B0B" transform="translate(491,498)"/>
            <path d="M0 0 C2.97587567 2.88569762 5.74797146 5.84428651 8.4375 9 C10.62810895 11.5461025 12.81127407 13.78145197 15.4375 15.875 C16.283125 16.57625 17.12875 17.2775 18 18 C18 18.66 18 19.32 18 20 C13.71588528 20.64261721 11.36376041 19.88854398 7.9375 17.4375 C3.2127809 13.58336254 -0.6824302 9.85812819 -1.375 3.625 C-1 1 -1 1 0 0 Z " fill="#0C0B0B" transform="translate(531,497)"/>
         </svg>

      </g>
      <!-- END: replaced icon -->
      <path stroke="#C9C9C9" stroke-width="2.418" d="M600.709 656.704c-31.384 0-56.825-25.441-56.825-56.824 0-31.384 25.441-56.825 56.825-56.825 31.383 0 56.824 25.441 56.824 56.825 0 31.383-25.441 56.824-56.824 56.824Z"/>
   </g>
   <defs>
      <linearGradient id="a" x1="554.061" x2="-.48" y1=".083" y2=".087" gradientUnits="userSpaceOnUse">
         <stop stop-color="#C9C9C9" stop-opacity="0"/>
         <stop offset=".208" stop-color="#C9C9C9"/>
         <stop offset=".792" stop-color="#C9C9C9"/>
         <stop offset="1" stop-color="#C9C9C9" stop-opacity="0"/>
      </linearGradient>
      <linearGradient id="b" x1="796.912" x2="404.507" y1="599.963" y2="599.965" gradientUnits="userSpaceOnUse">
         <stop stop-color="#C9C9C9" stop-opacity="0"/>
         <stop offset=".208" stop-color="#C9C9C9"/>
         <stop offset=".792" stop-color="#C9C9C9"/>
         <stop offset="1" stop-color="#C9C9C9" stop-opacity="0"/>
      </linearGradient>
      <linearGradient id="c" x1="600.792" x2="600.794" y1="403.677" y2="796.082" gradientUnits="userSpaceOnUse">
         <stop stop-color="#C9C9C9" stop-opacity="0"/>
         <stop offset=".208" stop-color="#C9C9C9"/>
         <stop offset=".792" stop-color="#C9C9C9"/>
         <stop offset="1" stop-color="#C9C9C9" stop-opacity="0"/>
      </linearGradient>
      <linearGradient id="d" x1="404.85" x2="796.972" y1="403.903" y2="796.02" gradientUnits="userSpaceOnUse">
         <stop stop-color="#C9C9C9" stop-opacity="0"/>
         <stop offset=".208" stop-color="#C9C9C9"/>
         <stop offset=".792" stop-color="#C9C9C9"/>
         <stop offset="1" stop-color="#C9C9C9" stop-opacity="0"/>
      </linearGradient>
      <clipPath id="e">
         <path fill="#fff" d="M581.364 580.535h38.689v38.689h-38.689z"/>
      </clipPath>
   </defs>
</svg>
 